HIERARCHY
ROOT Hips
{
	OFFSET 0.00 0.00 0.00
	CHANNELS 6 Xposition Yposition Zposition Xrotation Yrotation Zrotation
	JOINT LeftUpLeg
	{
		OFFSET 3.76682 0.00000 0.00000
		CHANNELS 3 Xrotation Yrotation Zrotation
		JOINT LeftLeg
		{
			OFFSET 0.00000 -17.03178 0.00000
			CHANNELS 3 Xrotation Yrotation Zrotation
			JOINT LeftFoot
			{
				OFFSET 0.00000 -15.72190 0.00000
				CHANNELS 3 Xrotation Yrotation Zrotation
				JOINT LeftToeBase
				{
					OFFSET 0.00000 -1.61281 6.01911
					CHANNELS 3 Xrotation Yrotation Zrotation
					End Site
					{
						OFFSET 0.00000 0.00000 2.95275
					}
				}
			}
		}
	}
	JOINT RightUpLeg
	{
		OFFSET -3.76682 0.00000 0.00000
		CHANNELS 3 Xrotation Yrotation Zrotation
		JOINT RightLeg
		{
			OFFSET 0.00000 -17.03178 0.00000
			CHANNELS 3 Xrotation Yrotation Zrotation
			JOINT RightFoot
			{
				OFFSET 0.00000 -15.72190 0.00000
				CHANNELS 3 Xrotation Yrotation Zrotation
				JOINT RightToeBase
				{
					OFFSET 0.00000 -1.61281 6.01911
					CHANNELS 3 Xrotation Yrotation Zrotation
					End Site
					{
						OFFSET 0.00000 0.00000 2.95275
					}
				}
			}
		}
	}
	JOINT Spine
	{
		OFFSET 0.00000 0.03937 0.00000
		CHANNELS 3 Xrotation Yrotation Zrotation
		JOINT Spine1
		{
			OFFSET 0.00000 6.63648 0.00000
			CHANNELS 3 Xrotation Yrotation Zrotation
			JOINT Neck
			{
				OFFSET 0.00000 10.89313 0.00000
				CHANNELS 3 Xrotation Yrotation Zrotation
				JOINT Head
				{
					OFFSET 0.00000 5.84841 0.00000
					CHANNELS 3 Xrotation Yrotation Zrotation
					End Site
					{
						OFFSET 0.00000 4.52755 0.00000
					}
				}
			}
			JOINT LeftShoulder
			{
				OFFSET 0.00000 10.89313 0.00000
				CHANNELS 3 Xrotation Yrotation Zrotation
				JOINT LeftArm
				{
					OFFSET 7.21266 -0.00003 0.00000
					CHANNELS 3 Xrotation Yrotation Zrotation
					JOINT LeftForeArm
					{
						OFFSET 9.64829 -0.00004 0.00000
						CHANNELS 3 Xrotation Yrotation Zrotation
						JOINT LeftHand
						{
							OFFSET 9.06793 -0.00003 0.00000
							CHANNELS 3 Xrotation Yrotation Zrotation
							JOINT LeftHandThumb
							{
								OFFSET 0.00000 0.00000 0.00000
								CHANNELS 3 Xrotation Yrotation Zrotation
								End Site
								{
									OFFSET 0.00000 0.00000 3.93700
								}
							}
							JOINT L_Wrist_End
							{
								OFFSET 3.93700 -0.00001 0.00000
								CHANNELS 3 Xrotation Yrotation Zrotation
							}
						}
					}
				}
			}
			JOINT RightShoulder
			{
				OFFSET 0.00000 10.89313 0.00000
				CHANNELS 3 Xrotation Yrotation Zrotation
				JOINT RightArm
				{
					OFFSET -7.21266 -0.00003 0.00000
					CHANNELS 3 Xrotation Yrotation Zrotation
					JOINT RightForeArm
					{
						OFFSET -9.64829 -0.00004 0.00000
						CHANNELS 3 Xrotation Yrotation Zrotation
						JOINT RightHand
						{
							OFFSET -9.06793 -0.00003 0.00000
							CHANNELS 3 Xrotation Yrotation Zrotation
							JOINT RightHandThumb
							{
								OFFSET 0.00000 0.00000 0.00000
								CHANNELS 3 Xrotation Yrotation Zrotation
								End Site
								{
									OFFSET 0.00000 0.00000 3.93700
								}
							}
							JOINT R_Wrist_End
							{
								OFFSET -5.39369 -0.00002 0.00000
								CHANNELS 3 Xrotation Yrotation Zrotation
							}
						}
					}
				}
			}
		}
	}
}
MOTION
Frames: 14
Frame Time: 0.008333
 68.1509 35.1510 14.1883 178.2174 -70.3311 -178.6251 3.6682 5.6101 0.0806 6.6254 0.0000 0.0000 -4.0170 9.9152 -7.3749 -13.5443 0.0000 0.0000 -24.8655 -0.3369 -3.6134 66.5494 -0.0000 0.0000 -0.7896 1.0530 -4.5583 -10.4525 -0.0000 0.0000 -13.8565 -1.2666 -1.5071 16.7667 1.8583 0.1377 23.8738 4.0482 8.5012 -21.0908 -7.0557 -10.9157 5.5856 -3.9374 7.5144 7.2995 -32.8836 -61.8060 -0.0001 -25.7852 -0.0000 13.7874 5.4565 -7.6975 0.0000 -0.0000 -0.0000 0.0000 -0.0000 -0.0000 7.0611 3.2321 -2.0363 8.8462 21.2927 68.7512 -0.0002 35.4892 0.0000 14.4278 -42.3031 -2.4501 0.0000 0.0000 -0.0000 0.0000 0.0000 -0.0000
 67.9847 35.1493 14.2170 178.0540 -69.7484 -178.8687 4.1272 5.6434 -0.0664 6.2985 -0.0000 0.0000 -4.2488 10.5313 -7.1558 -12.9201 0.0000 -0.0000 -25.4184 -0.8457 -3.6945 65.5412 -0.0000 0.0000 -0.8781 1.7889 -4.1159 -10.1060 -0.0000 -0.0000 -13.8163 -1.4232 -1.5332 16.7478 1.7176 0.1837 23.8848 4.0207 8.6046 -21.2393 -6.7138 -10.9885 5.8892 -3.9171 7.7574 6.4978 -32.2717 -61.9560 -0.0001 -26.0091 -0.0000 12.9800 5.6332 -7.4770 -0.0000 -0.0000 -0.0000 -0.0000 -0.0000 -0.0000 7.1253 3.1169 -2.0077 9.0956 21.2809 68.5856 -0.0001 35.4618 0.0000 14.1517 -41.8835 -2.6985 -0.0000 -0.0000 0.0000 -0.0000 -0.0000 0.0000
 67.8287 35.1438 14.2099 178.0005 -68.6533 -179.1793 4.7279 6.6269 -0.0064 5.8197 0.0000 0.0000 -4.3723 10.6404 -7.1226 -13.1070 -0.0000 -0.0000 -25.9453 -0.7530 -3.1779 64.3974 -0.0000 0.0000 -0.7503 1.9903 -3.4565 -10.3755 -0.0000 0.0000 -13.7333 -1.3212 -1.5020 16.6683 1.8988 0.3638 24.0010 3.8665 8.7509 -21.3392 -6.2035 -10.9528 5.4151 -4.3289 7.9618 6.3612 -31.2153 -62.3695 -0.0001 -25.8280 -0.0000 13.2124 5.1133 -7.0265 0.0000 -0.0000 0.0000 0.0000 -0.0000 0.0000 7.1727 3.1155 -1.8914 9.3789 20.9016 68.5181 -0.0002 35.6193 0.0000 14.6150 -42.0646 -2.4242 -0.0000 0.0000 0.0000 -0.0000 0.0000 0.0000
 67.6680 35.1381 14.2244 177.9154 -67.8028 -179.3881 5.2219 7.1284 -0.1366 5.4930 0.0000 -0.0000 -4.5328 11.0854 -6.8399 -13.0208 0.0000 0.0000 -26.4426 -0.8854 -2.9840 63.1677 -0.0000 0.0000 -0.7567 2.0843 -2.9048 -10.3484 0.0000 0.0000 -13.6794 -1.3979 -1.5000 16.6606 1.8598 0.4616 24.1001 4.0224 8.7618 -21.6122 -5.8951 -11.0424 5.3503 -4.3327 8.0333 6.0304 -30.6180 -62.4073 -0.0001 -25.8274 -0.0000 12.9135 4.7732 -6.5535 0.0000 0.0000 -0.0000 0.0000 0.0000 -0.0000 7.4475 3.1593 -1.8886 9.3816 20.7950 68.4209 -0.0002 35.6729 0.0000 14.6351 -42.1044 -2.5108 0.0000 -0.0000 0.0000 0.0000 -0.0000 0.0000
 67.5044 35.1304 14.2149 177.8723 -67.0101 -179.7083 5.7053 7.7602 -0.0602 5.1888 -0.0000 0.0000 -4.7387 11.2884 -6.8125 -13.0207 0.0000 -0.0000 -26.8199 -1.0864 -2.6127 61.7381 -0.0000 0.0000 -0.6356 1.7820 -2.5210 -10.6846 0.0000 0.0000 -13.6137 -1.4063 -1.5035 16.5819 1.9731 0.7476 24.1531 3.9642 8.7838 -21.6270 -5.6689 -10.9887 5.1463 -4.7883 8.1439 5.8833 -29.7105 -62.5637 -0.0001 -25.9590 -0.0000 12.7803 4.6608 -6.4362 -0.0000 -0.0000 0.0000 -0.0000 -0.0000 0.0000 7.5215 3.1430 -1.8023 9.7206 20.3254 68.3522 -0.0002 35.8573 0.0000 14.7347 -42.0904 -2.5370 -0.0000 -0.0000 -0.0000 -0.0000 -0.0000 -0.0000
 67.3376 35.1260 14.2199 177.7624 -66.2583 -179.9317 6.1486 8.0191 -0.2015 4.9297 0.0000 -0.0000 -4.9126 11.8781 -6.5050 -12.8593 0.0000 0.0000 -27.2107 -1.2708 -2.4335 60.2689 -0.0000 0.0000 -0.6172 1.2599 -2.0636 -10.8646 0.0000 -0.0000 -13.6138 -1.5150 -1.5532 16.6159 1.9154 0.8630 24.2939 4.0485 8.8922 -21.9606 -5.2615 -11.1144 5.0481 -4.7779 8.2186 5.4791 -29.1337 -62.6693 -0.0001 -25.9936 -0.0000 12.5743 4.6394 -6.2138 0.0000 -0.0000 0.0000 0.0000 -0.0000 0.0000 7.6851 3.0589 -1.6031 9.9290 20.4275 67.9429 -0.0002 35.9553 0.0000 14.3779 -42.0498 -2.6033 0.0000 -0.0000 0.0000 0.0000 -0.0000 0.0000
 67.1707 35.1178 14.2060 177.6195 -65.4661 179.7525 6.5458 8.5799 -0.2353 4.7361 0.0000 -0.0000 -5.1052 12.1635 -6.2501 -12.7795 -0.0000 -0.0000 -27.5554 -1.4025 -2.1143 58.6973 0.0000 -0.0000 -0.6693 0.4695 -1.6500 -10.8145 -0.0000 -0.0000 -13.6315 -1.5386 -1.5922 16.6363 1.9709 1.0397 24.3166 3.9970 9.0157 -22.0804 -4.8893 -11.1626 5.0268 -4.9307 8.3457 5.0901 -28.5760 -62.7564 -0.0001 -26.0631 -0.0000 12.4097 4.5348 -6.1036 -0.0000 -0.0000 0.0000 -0.0000 -0.0000 0.0000 7.8568 2.9182 -1.4278 10.0736 20.3683 67.7035 -0.0002 35.9986 0.0000 14.5100 -42.0988 -2.5148 -0.0000 -0.0000 -0.0000 -0.0000 -0.0000 -0.0000
 67.0071 35.1051 14.2088 177.5172 -65.0868 179.6076 6.7321 8.5651 -0.3796 4.9166 -0.0000 0.0000 -5.4828 12.7266 -6.0645 -12.2880 -0.0000 -0.0000 -27.8321 -1.8336 -2.1387 57.1095 0.0000 0.0000 -0.9577 -0.3767 -1.2261 -10.0686 -0.0000 -0.0000 -13.5929 -1.7318 -1.6589 16.6455 1.7855 1.0527 24.2625 3.9929 9.0858 -22.0823 -4.6811 -11.0877 5.0673 -5.0526 8.5073 4.8521 -28.4192 -62.6542 -0.0001 -26.1791 -0.0000 12.2553 4.6648 -5.8222 0.0000 -0.0000 0.0000 0.0000 -0.0000 0.0000 7.8459 2.7503 -1.3170 10.0877 20.2313 67.6888 -0.0002 35.8044 0.0000 14.8947 -42.0598 -2.2290 -0.0000 0.0000 -0.0000 -0.0000 0.0000 -0.0000
 66.8477 35.0957 14.1721 177.1164 -64.2069 178.8759 7.0674 9.1897 -0.1963 4.5545 -0.0000 0.0000 -5.6342 12.9238 -6.0755 -12.3837 -0.0000 -0.0000 -28.2084 -1.9333 -1.5398 55.3131 0.0000 0.0000 -0.7523 -1.3625 -1.2234 -10.4124 0.0000 -0.0000 -13.7010 -1.6476 -1.6099 16.6361 1.9744 1.3232 24.2834 3.6921 9.4040 -22.1833 -4.0909 -11.2313 4.9041 -5.3367 8.6048 4.5977 -27.8281 -62.7430 -0.0001 -26.3137 -0.0000 12.1950 4.5814 -5.8295 -0.0000 -0.0000 -0.0000 -0.0000 -0.0000 -0.0000 7.9323 2.4988 -0.9938 10.4174 20.0783 67.3660 -0.0002 35.9427 0.0000 14.5755 -42.0677 -2.3880 -0.0000 -0.0000 -0.0000 -0.0000 -0.0000 -0.0000
 66.6831 35.0883 14.1388 176.9359 -63.6587 178.4063 7.3135 9.4939 -0.0475 4.5169 0.0000 -0.0000 -5.8633 13.2213 -6.0388 -12.4161 -0.0000 0.0000 -28.3613 -2.3281 -1.1639 53.3591 -0.0000 -0.0000 -0.6999 -2.3083 -1.0580 -10.5757 -0.0000 0.0000 -13.8329 -1.7655 -1.6619 16.7876 1.9934 1.6537 24.2129 3.7045 9.4539 -22.2080 -3.9182 -11.2192 4.7408 -5.5578 8.5868 4.5557 -27.5679 -62.5849 -0.0001 -26.5090 -0.0000 12.1247 4.6538 -5.7171 0.0000 0.0000 -0.0000 0.0000 0.0000 -0.0000 7.9757 2.3303 -0.8892 10.4692 19.8440 67.3355 -0.0002 35.8404 0.0000 14.6721 -42.0471 -2.3213 -0.0000 0.0000 0.0000 -0.0000 0.0000 0.0000
 66.5156 35.0793 14.1214 176.7990 -63.0991 178.1807 7.6046 9.6224 -0.1514 4.4786 0.0000 0.0000 -6.0596 13.7180 -5.8426 -12.3878 -0.0000 -0.0000 -28.5234 -2.6336 -1.0163 51.4239 0.0000 -0.0000 -0.7017 -3.1596 -1.1189 -10.4969 0.0000 -0.0000 -13.8650 -1.8781 -1.7240 16.8670 1.9378 1.7788 24.1412 3.5817 9.5947 -22.2335 -3.5180 -11.3390 4.6438 -5.6089 8.5751 4.3979 -27.4165 -62.4404 -0.0001 -26.6661 -0.0000 12.1835 4.7141 -5.6456 -0.0000 -0.0000 -0.0000 -0.0000 -0.0000 -0.0000 8.2603 2.1940 -0.7173 10.3276 19.6845 67.1856 -0.0002 35.7917 0.0000 14.8987 -42.1512 -2.1668 0.0000 0.0000 0.0000 0.0000 0.0000 0.0000
 66.3569 35.0730 14.0672 176.5610 -62.6534 177.6021 7.7793 9.8781 0.1114 4.4634 -0.0000 -0.0000 -6.2999 13.9311 -5.8835 -12.4178 0.0000 0.0000 -28.5769 -3.0897 -0.5769 49.2497 -0.0000 0.0000 -0.5417 -4.0633 -1.1753 -10.5034 -0.0000 -0.0000 -14.1610 -1.9566 -1.8447 17.2310 2.0637 2.2386 23.8799 3.5148 9.6168 -22.0932 -3.4858 -11.1659 4.7212 -5.8604 8.6297 3.9972 -27.5399 -62.2851 -0.0001 -26.7111 -0.0000 12.1321 4.8024 -5.4921 -0.0000 0.0000 0.0000 -0.0000 0.0000 0.0000 8.1755 1.8230 -0.6436 10.3313 19.4434 67.2850 -0.0002 35.6230 0.0000 14.9911 -42.1791 -2.1202 -0.0000 -0.0000 -0.0000 -0.0000 -0.0000 -0.0000
 66.1905 35.0660 14.0413 176.4143 -62.1316 177.3688 8.0608 9.9078 0.0149 4.4332 -0.0000 -0.0000 -6.4609 14.4713 -5.7066 -12.2537 -0.0000 0.0000 -28.6386 -3.4153 -0.4214 47.1250 -0.0000 0.0000 -0.4316 -4.7819 -1.2083 -10.2120 -0.0000 -0.0000 -14.2042 -2.0681 -1.9315 17.3183 2.0284 2.3937 23.8456 3.4372 9.7514 -22.2101 -3.1479 -11.2895 4.6655 -5.9206 8.6264 3.7520 -27.4151 -62.2064 -0.0001 -26.8561 -0.0000 12.3760 4.9083 -5.5154 0.0000 -0.0000 0.0000 0.0000 -0.0000 0.0000 8.3986 1.7522 -0.5085 10.2968 19.3229 67.1615 -0.0002 35.5323 0.0000 14.9935 -42.2245 -2.1223 0.0000 -0.0000 -0.0000 0.0000 -0.0000 -0.0000
 66.0353 35.0580 13.9794 176.1840 -61.7030 176.8290 8.2341 10.2212 0.2636 4.4259 0.0000 -0.0000 -6.7048 14.5829 -5.7952 -12.1544 0.0000 -0.0000 -28.5828 -3.8799 0.0197 44.7705 -0.0000 0.0000 -0.1426 -5.5651 -1.2802 -10.1732 -0.0000 -0.0000 -14.3854 -2.1417 -2.0893 17.5383 2.1866 2.8759 23.5658 3.3587 9.7842 -22.0402 -3.1359 -11.1589 4.4655 -6.2347 8.6491 3.6869 -27.5721 -62.0871 -0.0001 -26.9085 -0.0000 12.4183 4.9008 -5.4068 0.0000 0.0000 -0.0000 0.0000 0.0000 -0.0000 8.4461 1.4016 -0.4634 10.1951 18.9488 67.3230 -0.0001 35.4263 0.0000 15.1583 -42.2135 -1.9334 -0.0000 0.0000 0.0000 -0.0000 0.0000 0.0000
